<?xml version="1.0" standalone="no"?>
<!DOCTYPE svg PUBLIC "-//W3C//DTD SVG 20010904//EN"
 "http://www.w3.org/TR/2001/REC-SVG-20010904/DTD/svg10.dtd">
<svg version="1.0" xmlns="http://www.w3.org/2000/svg"
 width="1280.000000pt" height="1280.000000pt" viewBox="0 0 1280.000000 1280.000000"
 preserveAspectRatio="xMidYMid meet">
<metadata>
Created by potrace 1.15, written by Peter Selinger 2001-2017
</metadata>
<g transform="translate(0.000000,1280.000000) scale(0.100000,-0.100000)"
fill="#000000" stroke="none">
<path d="M4942 8883 c-187 -3 -203 -5 -198 -21 2 -9 7 -38 11 -64 7 -55 -20
-47 257 -73 181 -17 338 -39 398 -55 l37 -10 7 -103 c12 -181 26 -1134 26
-1757 0 -674 -17 -1970 -28 -2125 l-7 -100 -75 -12 c-41 -6 -192 -26 -335 -43
-143 -18 -262 -34 -264 -36 -4 -3 -31 -128 -28 -130 1 -1 97 3 212 8 268 13
1543 13 1865 0 135 -5 246 -8 248 -7 3 2 -25 126 -30 130 -2 1 -59 8 -128 14
-397 38 -665 72 -676 87 -24 31 -29 442 -29 2149 1 1631 5 1938 28 1961 9 9
330 -14 439 -32 211 -34 354 -84 482 -168 323 -212 466 -580 401 -1031 -60
-422 -287 -731 -675 -920 -52 -25 -140 -60 -195 -77 -55 -17 -105 -36 -112
-42 -6 -6 -14 -44 -18 -84 -7 -73 -7 -73 16 -68 13 3 69 15 123 27 215 45 466
134 678 240 222 110 378 219 523 364 288 288 435 622 435 991 0 330 -177 587
-525 761 -260 131 -605 195 -1195 223 -184 9 -1139 10 -1668 3z"/>
</g>
</svg>
